<svg xmlns="http://www.w3.org/2000/svg" viewBox="0 0 404.08 418.91"><defs><style>.cls-1{fill:#57ba51;}.cls-2{fill:#353535;}</style></defs><title>nice-iteration</title><g id="Layer_2" data-name="Layer 2"><path class="cls-1" d="M604.51,244.65H428.88l0,0-.59,0c-56.33-.49-112,49.09-124.32,110.75s23.33,112,79.66,112.52,112-49.09,124.33-110.75c5.51-27.57,1.4-52.87-9.84-72.48h67.68ZM465.3,356.81c-7.17,35.89-39.57,64.75-72.35,64.46s-53.55-29.61-46.37-65.49,39.57-64.74,72.36-64.46S472.48,320.93,465.3,356.81Z" transform="translate(-227.95 -49.03)"/></g><g id="Layer_1" data-name="Layer 1"><polygon points="202.04 7.37 0 90.7 202.04 174.03 404.08 90.7 202.04 7.37"/><rect y="83.33" width="404.08" height="7.37"/><polygon class="cls-2" points="202.04 0 0 83.33 202.04 166.66 404.08 83.33 202.04 0"/><ellipse cx="202.04" cy="83.33" rx="28.15" ry="15.02"/><path class="cls-1" d="M274.79,156.35l-.34-2.48-.34-2.47,155.54-21.52c3.72-.51,4.4,4.44.68,5Z" transform="translate(-227.95 -49.03)"/><rect class="cls-1" x="46.15" y="102.39" width="5" height="117.09"/><path class="cls-1" d="M265.43,319.21l22.36-15.92V268.51c0-9.7-22.36-9.7-22.36,0Z" transform="translate(-227.95 -49.03)"/><polygon class="cls-2" points="202.04 186.3 108.52 147.72 108.52 241.19 295.56 195.63 295.56 147.72 202.04 186.3"/></g></svg>