<svg id="Layer_1" data-name="Layer 1" xmlns="http://www.w3.org/2000/svg" viewBox="0 0 507.7 106.28"><defs><style>.cls-1{fill:#57ba51;}.cls-2{fill:#353535;}</style></defs><title>with-text</title><path class="cls-1" d="M189,225.32v-39.1H174.93v-9H213.3v9h-14v39.1Z" transform="translate(-82.15 -133.17)"/><path class="cls-1" d="M210.34,207.86c0-10.1,7.43-18.25,18-18.25,10.39,0,17.46,7.79,17.46,19.19v2h-25.9c.58,4.4,4.11,8.08,10,8.08,2.95,0,7.07-1.3,9.3-3.46l4,5.91c-3.46,3.17-8.94,4.83-14.35,4.83C218.34,226.18,210.34,219,210.34,207.86Zm18-11c-5.7,0-8.15,4.25-8.58,7.72H237C236.74,201.3,234.43,196.9,228.37,196.9Z" transform="translate(-82.15 -133.17)"/><path class="cls-1" d="M276,225.32V204.25c0-4.83-2.52-6.49-6.42-6.49a9.92,9.92,0,0,0-7.93,4.11v23.45h-9.16V190.48h9.16V195a15.94,15.94,0,0,1,12.19-5.41c7.64,0,11.32,4.33,11.32,11.11v24.6Z" transform="translate(-82.15 -133.17)"/><path class="cls-1" d="M296,216.66V198.48h-5.77v-8H296V181h9.23v9.52h7.07v8h-7.07v15.73c0,2.16,1.16,3.82,3.18,3.82a5,5,0,0,0,3.17-1l1.95,6.93c-1.37,1.22-3.82,2.23-7.65,2.23C299.48,226.18,296,222.86,296,216.66Z" transform="translate(-82.15 -133.17)"/><path class="cls-1" d="M339.51,225.32v-3.61c-2.38,2.81-6.49,4.47-11,4.47-5.56,0-12.12-3.75-12.12-11.54,0-8.15,6.56-11.25,12.12-11.25,4.61,0,8.73,1.51,11,4.26V203c0-3.54-3-5.85-7.64-5.85a14.63,14.63,0,0,0-10.17,4.12l-3.46-6.14a22.83,22.83,0,0,1,15.22-5.48c7.93,0,15.21,3.18,15.21,13.2v22.51Zm0-8.37v-4.33c-1.51-2-4.4-3-7.35-3-3.61,0-6.57,1.88-6.57,5.27,0,3.24,3,5.12,6.57,5.12C335.11,220,338,219,339.51,217Z" transform="translate(-82.15 -133.17)"/><path class="cls-1" d="M381.35,225.32V204.11c0-4.83-2.53-6.35-6.49-6.35a10.16,10.16,0,0,0-7.94,4.11v23.45h-9.16V177.21h9.16V195a16.12,16.12,0,0,1,12.26-5.41c7.65,0,11.33,4.19,11.33,11v24.74Z" transform="translate(-82.15 -133.17)"/><path class="cls-1" d="M387.62,237l2.52-6.85a6.56,6.56,0,0,0,4.69,1.8c2.81,0,4.76-1.8,4.76-5.7V190.48h9.16v35.77c0,7.94-4,13.2-12.4,13.2C392,239.45,390.14,238.73,387.62,237Zm11-55.75a5.49,5.49,0,1,1,5.49,5.48A5.53,5.53,0,0,1,398.65,181.25Z" transform="translate(-82.15 -133.17)"/><path class="cls-1" d="M438.76,225.32v-3.61c-2.38,2.81-6.5,4.47-11,4.47-5.55,0-12.12-3.75-12.12-11.54,0-8.15,6.57-11.25,12.12-11.25,4.62,0,8.73,1.51,11,4.26V203c0-3.54-3-5.85-7.65-5.85a14.63,14.63,0,0,0-10.17,4.12l-3.46-6.14a22.85,22.85,0,0,1,15.22-5.48c7.93,0,15.22,3.18,15.22,13.2v22.51Zm-13.64-39.17a4.87,4.87,0,1,1,4.84-4.9A4.86,4.86,0,0,1,425.12,186.15ZM438.76,217v-4.33c-1.52-2-4.4-3-7.36-3-3.61,0-6.57,1.88-6.57,5.27,0,3.24,3,5.12,6.57,5.12C434.36,220,437.24,219,438.76,217Zm1.58-30.8a4.87,4.87,0,1,1,4.91-4.9A4.9,4.9,0,0,1,440.34,186.15Z" transform="translate(-82.15 -133.17)"/><path class="cls-1" d="M457,225.32V177.21h9.16v48.11Z" transform="translate(-82.15 -133.17)"/><path class="cls-1" d="M484.41,220.84v17.75h-9.16V190.48h9.16v4.4a13.46,13.46,0,0,1,10.75-5.27c8.94,0,15.43,6.64,15.43,18.25s-6.49,18.32-15.43,18.32A13.31,13.31,0,0,1,484.41,220.84Zm16.66-13c0-6-3.53-10.1-8.8-10.1a10.25,10.25,0,0,0-7.86,4v12.33a10.47,10.47,0,0,0,7.86,4C497.54,218,501.07,213.92,501.07,207.86Z" transform="translate(-82.15 -133.17)"/><path class="cls-1" d="M515.06,207.86c0-10.1,7.43-18.25,18-18.25,10.39,0,17.46,7.79,17.46,19.19v2H524.66c.57,4.4,4.11,8.08,10,8.08a14.88,14.88,0,0,0,9.31-3.46l4,5.91c-3.46,3.17-8.94,4.83-14.35,4.83C523.07,226.18,515.06,219,515.06,207.86Zm18-11c-5.69,0-8.15,4.25-8.58,7.72h17.17C541.46,201.3,539.15,196.9,533.09,196.9Z" transform="translate(-82.15 -133.17)"/><path class="cls-1" d="M580.7,225.32V204.25c0-4.83-2.53-6.49-6.42-6.49a9.94,9.94,0,0,0-7.94,4.11v23.45h-9.16V190.48h9.16V195a16,16,0,0,1,12.19-5.41c7.65,0,11.33,4.33,11.33,11.11v24.6Z" transform="translate(-82.15 -133.17)"/><path class="cls-1" d="M166.93,177.21H127.25c-12.68-.11-25.21,11-28,24.93s5.25,25.23,17.94,25.34,25.21-11.06,28-24.94A23.33,23.33,0,0,0,143,186.23h15.24Zm-31.34,25.25C134,210.54,126.68,217,119.3,217s-12.06-6.66-10.44-14.74,8.91-14.58,16.29-14.51S137.2,194.38,135.59,202.46Z" transform="translate(-82.15 -133.17)"/><polygon points="45.48 1.66 0 20.42 45.48 39.18 90.97 20.42 45.48 1.66"/><rect y="18.76" width="90.97" height="1.66"/><polygon class="cls-2" points="45.48 0 0 18.76 45.48 37.52 90.97 18.76 45.48 0"/><ellipse cx="45.48" cy="18.76" rx="6.34" ry="3.38"/><path class="cls-1" d="M92.7,157.33l-.08-.56-.08-.55,35-4.85a.57.57,0,1,1,.15,1.12Z" transform="translate(-82.15 -133.17)"/><rect class="cls-1" x="10.39" y="23.05" width="1.13" height="26.36"/><path class="cls-1" d="M90.59,194l5-3.59v-7.83c0-2.18-5-2.18-5,0Z" transform="translate(-82.15 -133.17)"/><polygon class="cls-2" points="45.48 41.94 24.43 33.26 24.43 54.3 66.54 44.04 66.54 33.26 45.48 41.94"/></svg>