<?xml version="1.0" standalone="no"?>
<!DOCTYPE svg PUBLIC "-//W3C//DTD SVG 20010904//EN"
 "http://www.w3.org/TR/2001/REC-SVG-20010904/DTD/svg10.dtd">
<svg version="1.0" xmlns="http://www.w3.org/2000/svg"
 width="838.000000pt" height="838.000000pt" viewBox="0 0 838.000000 838.000000"
 preserveAspectRatio="xMidYMid meet">
<metadata>
Created by potrace 1.11, written by Peter Selinger 2001-2013
</metadata>
<g transform="translate(0.000000,838.000000) scale(0.100000,-0.100000)"
fill="#000000" stroke="none">
<path d="M4161 8369 c-13 -5 -38 -16 -55 -24 -17 -8 -56 -23 -86 -35 -30 -11
-68 -27 -85 -34 -54 -25 -122 -53 -145 -61 -28 -9 -71 -28 -95 -42 -16 -9 -32
-17 -35 -16 -6 1 -47 -14 -75 -27 -11 -5 -60 -25 -110 -46 -49 -20 -101 -41
-115 -47 -14 -6 -27 -11 -30 -12 -8 -3 -43 -17 -90 -37 -75 -32 -82 -35 -172
-72 -47 -20 -91 -36 -97 -36 -6 0 -11 -4 -11 -8 0 -4 -8 -8 -18 -9 -9 -1 -52
-17 -95 -37 -42 -19 -77 -33 -77 -30 0 2 -11 -3 -25 -12 -14 -9 -25 -12 -25
-8 0 5 -4 4 -8 -1 -5 -8 -190 -87 -212 -91 -3 0 -23 -9 -45 -18 -86 -38 -180
-78 -190 -80 -5 -2 -32 -13 -58 -24 -27 -12 -52 -22 -55 -22 -4 0 -18 -6 -32
-13 -14 -7 -49 -22 -77 -32 -29 -10 -53 -23 -53 -29 0 -5 -3 -7 -6 -4 -4 5
-246 -89 -349 -136 -16 -8 -66 -28 -110 -46 -44 -18 -93 -38 -110 -45 -16 -8
-55 -23 -85 -35 -30 -11 -79 -32 -108 -45 -29 -14 -58 -25 -65 -25 -7 0 -17
-4 -23 -8 -14 -12 -144 -65 -160 -65 -8 0 -14 -4 -14 -9 0 -4 -6 -8 -13 -8 -8
0 -27 -6 -43 -14 -16 -8 -69 -31 -119 -51 -49 -20 -142 -58 -205 -85 -63 -26
-149 -61 -190 -78 -41 -17 -93 -39 -115 -48 -22 -10 -48 -19 -58 -21 -10 -2
-29 -10 -42 -19 -23 -15 -25 -23 -25 -89 0 -68 2 -74 23 -81 12 -4 92 -36 177
-72 85 -35 161 -65 168 -65 6 0 12 -4 12 -9 0 -4 3 -7 8 -6 4 1 19 -4 35 -10
68 -29 83 -35 92 -38 17 -5 400 -166 404 -170 3 -3 5 -2022 2 -2044 -1 -3 -21
-12 -46 -19 -25 -7 -62 -28 -83 -47 l-37 -33 -3 -530 c-2 -358 1 -531 8 -531
5 0 10 5 10 10 0 6 5 10 10 10 6 0 16 5 23 10 7 6 30 24 52 40 22 16 45 33 50
38 6 4 34 23 62 42 29 18 53 37 53 42 0 4 7 8 15 8 8 0 15 5 15 10 0 6 5 10
11 10 6 0 17 6 24 13 7 6 36 27 63 46 l48 35 0 365 c-1 325 -3 369 -18 389
-23 34 -79 69 -120 77 l-35 7 0 1004 c0 552 2 1004 4 1004 5 0 168 -66 198
-80 11 -5 61 -26 110 -46 99 -39 135 -54 180 -74 17 -8 32 -14 35 -15 4 0 94
-37 195 -80 17 -7 50 -20 75 -30 25 -10 63 -26 85 -36 22 -9 87 -36 145 -59
58 -23 128 -52 155 -64 28 -12 66 -28 85 -35 19 -8 50 -20 67 -28 18 -7 138
-57 265 -109 128 -52 247 -101 263 -109 17 -7 55 -23 85 -35 30 -12 71 -28 90
-37 19 -8 44 -19 55 -24 33 -14 384 -158 455 -186 36 -15 85 -35 110 -45 25
-11 54 -23 65 -28 11 -4 36 -15 55 -23 19 -9 82 -34 139 -57 l103 -41 77 32
c42 17 95 40 118 50 23 11 44 19 48 19 3 0 24 9 48 19 23 10 78 33 122 51 44
18 100 41 125 52 24 11 49 21 55 22 5 2 27 10 49 19 21 9 40 17 41 17 1 0 24
10 51 22 27 12 51 23 54 23 3 1 16 6 30 12 14 6 86 36 160 66 293 119 632 260
712 296 26 11 50 21 53 21 3 0 22 7 43 17 20 9 39 17 42 17 8 2 475 194 525
216 11 5 76 32 145 61 69 28 136 56 150 62 14 6 27 11 30 12 14 5 67 27 85 35
42 19 271 112 281 114 7 1 18 7 26 14 8 6 23 13 34 15 10 2 41 13 68 25 27 12
51 22 53 22 2 0 29 11 59 25 30 14 60 25 67 25 7 0 17 4 22 8 6 5 53 26 105
47 52 21 109 44 125 51 17 7 59 25 95 39 36 15 79 33 95 40 17 7 78 32 137 56
l108 44 0 71 c0 52 -4 75 -15 84 -8 7 -15 9 -15 5 0 -4 -6 -3 -12 3 -7 5 -82
37 -166 71 -84 34 -161 66 -170 71 -9 5 -75 32 -145 60 -71 28 -140 56 -155
62 -15 6 -29 12 -32 12 -3 1 -9 4 -15 8 -5 3 -134 56 -285 118 -151 62 -293
120 -315 130 -22 10 -78 33 -125 51 -47 18 -86 37 -88 41 -2 4 -10 4 -18 1 -8
-3 -14 -1 -14 5 0 6 -15 14 -32 17 -18 4 -37 11 -43 15 -5 4 -44 21 -86 38
-42 18 -90 37 -105 43 -16 7 -31 13 -34 14 -3 1 -23 9 -45 19 -22 10 -47 19
-56 21 -9 2 -25 8 -35 13 -23 12 -60 28 -179 77 -49 20 -109 45 -132 56 -24
10 -45 19 -47 19 -3 0 -17 5 -33 12 -15 6 -30 12 -33 13 -3 0 -27 11 -54 23
-27 12 -51 22 -54 22 -4 0 -40 15 -157 65 -16 8 -52 22 -80 33 -27 11 -68 28
-90 38 -22 10 -44 19 -50 20 -5 2 -86 35 -180 74 -93 39 -215 89 -270 111 -55
22 -114 47 -132 56 -17 8 -37 16 -45 17 -7 2 -35 13 -63 25 -27 13 -84 36
-125 53 -41 16 -91 36 -110 45 -19 8 -44 19 -55 23 -11 4 -40 17 -65 28 -65
28 -82 32 -109 21z"/>
<path d="M2320 5373 c0 -27 0 -167 0 -313 1 -146 1 -272 1 -280 0 -8 0 -224 0
-480 0 -256 0 -472 0 -480 0 -8 0 -70 0 -138 l0 -123 -59 -72 c-71 -86 -212
-283 -212 -296 0 -5 -6 -16 -13 -23 -28 -28 -137 -235 -196 -373 -40 -93 -123
-329 -135 -386 -3 -13 -12 -55 -21 -92 -8 -37 -17 -80 -20 -95 -3 -15 -7 -38
-10 -52 -3 -14 -7 -49 -11 -78 -3 -29 -8 -63 -11 -75 -7 -30 -10 -437 -4 -437
4 0 6 -14 5 -32 0 -18 3 -48 7 -68 4 -19 10 -55 14 -80 3 -25 13 -74 21 -110
19 -80 20 -81 27 -100 6 -17 31 -93 32 -100 4 -23 59 -154 84 -200 64 -119
127 -220 170 -273 113 -139 211 -233 334 -320 139 -99 355 -203 483 -232 10
-2 46 -11 79 -19 134 -32 204 -39 390 -40 140 -1 230 5 315 19 65 11 75 13
125 25 28 6 57 13 65 15 24 5 106 28 130 37 8 3 56 20 105 38 186 68 491 232
579 312 11 10 24 18 29 18 5 0 19 9 31 20 11 10 62 52 111 93 363 297 668 718
845 1165 59 151 121 357 124 415 0 9 3 17 6 17 3 0 6 8 7 18 1 9 4 31 7 47 4
17 9 48 12 70 2 22 7 49 9 60 19 91 25 382 12 527 -10 105 -33 238 -58 328
-12 41 -22 80 -23 85 -2 6 -6 19 -10 30 -5 11 -12 34 -18 50 -6 17 -18 46 -26
65 -9 19 -17 37 -17 40 0 3 -17 38 -38 79 -20 41 -35 77 -31 80 3 3 306 6 673
6 l667 1 91 94 c50 52 134 138 185 192 51 53 181 187 288 298 107 111 196 205
198 209 1 4 -354 7 -790 6 -436 0 -799 1 -805 3 -10 3 -13 108 -13 478 0 261
-3 474 -6 474 -8 0 -199 -77 -262 -106 -29 -13 -55 -24 -58 -24 -3 0 -20 -6
-37 -14 -51 -23 -175 -75 -267 -111 -47 -18 -110 -44 -140 -58 -55 -24 -90
-39 -100 -42 -15 -5 -68 -27 -85 -35 -36 -16 -320 -131 -330 -133 -5 -1 -12
-4 -15 -7 -3 -3 -43 -21 -90 -39 -47 -19 -104 -42 -127 -53 -23 -10 -44 -18
-47 -18 -3 0 -29 -11 -58 -23 -52 -23 -195 -82 -233 -96 -13 -5 -48 5 -108 31
-48 21 -95 38 -103 38 -7 0 -14 5 -14 10 0 6 -5 10 -11 10 -13 0 -135 47 -239
93 -19 8 -71 30 -115 47 -44 17 -93 38 -110 45 -16 8 -70 30 -118 50 -48 20
-100 41 -115 47 -15 6 -29 12 -32 13 -3 1 -16 6 -30 12 -14 6 -88 37 -165 68
-77 32 -146 62 -152 67 -7 6 -13 7 -13 4 0 -4 -10 -1 -22 6 -13 7 -25 13 -28
14 -6 1 -29 10 -80 32 -36 15 -47 19 -282 116 -76 31 -140 56 -143 56 -3 0 -5
-21 -5 -47z m1740 -1847 c41 -3 90 -10 108 -15 18 -5 33 -9 35 -9 9 2 129 -37
133 -43 3 -5 14 -9 25 -9 10 0 19 -4 19 -10 0 -5 7 -10 15 -10 52 0 312 -225
348 -301 4 -8 17 -30 28 -49 36 -59 60 -109 74 -150 1 -3 7 -17 13 -31 20 -48
40 -135 51 -216 4 -29 10 -55 13 -59 4 -3 3 -17 -2 -30 -5 -13 -6 -25 -2 -28
13 -8 2 -213 -17 -310 -6 -28 -13 -62 -15 -76 -10 -51 -48 -175 -57 -184 -5
-6 -9 -16 -9 -24 0 -21 -105 -234 -148 -300 -98 -151 -232 -305 -347 -397 -20
-16 -42 -35 -49 -40 -10 -10 -98 -70 -166 -115 -93 -61 -305 -141 -435 -164
-177 -32 -372 -25 -498 19 -23 8 -50 15 -59 15 -10 0 -18 5 -18 10 0 6 -3 9
-7 8 -13 -3 -83 25 -83 34 0 4 -3 7 -7 6 -15 -5 -149 91 -203 145 -85 84 -161
188 -182 250 -6 15 -14 27 -19 27 -5 0 -9 7 -9 15 0 8 -4 23 -9 33 -28 52 -65
196 -77 292 -15 128 -5 360 17 401 4 9 6 19 3 21 -6 7 21 114 53 208 113 336
349 649 630 837 37 25 80 54 95 64 15 11 31 19 36 19 5 0 15 7 22 15 6 8 15
14 18 13 4 -1 33 10 64 25 31 15 59 27 62 27 2 0 17 5 33 11 15 6 30 10 33 11
3 0 10 3 15 7 10 8 102 31 195 49 25 5 74 10 110 11 36 1 67 4 68 6 2 2 9 2
15 0 7 -2 46 -6 87 -9z"/>
</g>
</svg>
